<svg width="747" height="488" viewBox="0 0 747 488" fill="none" xmlns="http://www.w3.org/2000/svg">
<path d="M320.234 22.2968C325.553 12.6277 339.447 12.6276 344.766 22.2967L522.436 345.252C527.569 354.582 520.819 366 510.17 366H154.83C144.181 366 137.43 354.582 142.563 345.252L320.234 22.2968Z" fill="#7CA2A5"/>
<path d="M597.031 156.424C602.228 146.245 616.772 146.245 621.969 156.424L718.181 344.884C722.937 354.199 716.171 365.25 705.712 365.25H513.288C502.829 365.25 496.063 354.199 500.819 344.884L597.031 156.424Z" fill="#7CA2A5"/>
<path d="M465.798 87.4489C470.993 77.2643 485.545 77.2642 490.741 87.4489L604.078 309.638C608.829 318.953 602.063 330 591.607 330H364.932C354.475 330 347.709 318.953 352.461 309.639L465.798 87.4489Z" fill="#7CA2A5"/>
<path d="M161.528 94.4576C166.723 84.2709 181.277 84.2709 186.472 94.4576L314.306 345.14C319.056 354.455 312.29 365.5 301.834 365.5H46.166C35.7101 365.5 28.9441 354.455 33.694 345.14L161.528 94.4576Z" fill="#7CA2A5"/>
</svg>
